<svg width="35" height="323" viewBox="0 0 35 323" fill="none" xmlns="http://www.w3.org/2000/svg">
<circle r="7.5" transform="matrix(-1 0 0 1 17.5 161.5)" fill="white"/>
<circle r="7.5" transform="matrix(-1 0 0 1 17.5 17.5)" fill="white"/>
<circle r="17.5" transform="matrix(-1 0 0 1 17.5 17.5)" fill="white" fill-opacity="0.01"/>
<circle r="17.5" transform="matrix(-1 0 0 1 17.5 162.5)" fill="white" fill-opacity="0.01"/>
<circle r="17.5" transform="matrix(-1 0 0 1 17.5 305.5)" fill="white" fill-opacity="0.01"/>
<circle opacity="0.2" r="1.5" transform="matrix(-1 0 0 1 18.5 122.5)" fill="white"/>
<circle r="1.5" transform="matrix(-1 0 0 1 18.5 89.5)" fill="white"/>
<circle r="1.5" transform="matrix(-1 0 0 1 18.5 56.5)" fill="white"/>
<circle r="7.5" transform="matrix(-1 0 0 1 17.5 305.5)" fill="white"/>
<circle r="1.5" transform="matrix(-1 0 0 1 18.5 266.5)" fill="white"/>
<circle r="1.5" transform="matrix(-1 0 0 1 18.5 233.5)" fill="white"/>
<circle r="1.5" transform="matrix(-1 0 0 1 18.5 200.5)" fill="white"/>
</svg>
