<svg width="15" height="303" viewBox="0 0 15 303" fill="none" xmlns="http://www.w3.org/2000/svg">
<circle r="7.5" transform="matrix(-1 0 0 1 7.5 151.5)" fill="white"/>
<circle r="7.5" transform="matrix(-1 0 0 1 7.5 7.5)" fill="white"/>
<circle opacity="0.2" r="1.5" transform="matrix(-1 0 0 1 8.5 112.5)" fill="white"/>
<circle r="1.5" transform="matrix(-1 0 0 1 8.5 79.5)" fill="white"/>
<circle r="1.5" transform="matrix(-1 0 0 1 8.5 46.5)" fill="white"/>
<circle r="7.5" transform="matrix(-1 0 0 1 7.5 295.5)" fill="white"/>
<circle r="1.5" transform="matrix(-1 0 0 1 8.5 256.5)" fill="white"/>
<circle r="1.5" transform="matrix(-1 0 0 1 8.5 223.5)" fill="white"/>
<circle r="1.5" transform="matrix(-1 0 0 1 8.5 190.5)" fill="white"/>
</svg>
